<svg width="980" height="220" viewBox="0 0 980 220" xmlns="http://www.w3.org/2000/svg">
  <defs>
    <linearGradient id="coreGradient" x1="0%" y1="0%" x2="100%" y2="100%">
      <stop offset="0%" stop-color="#A45BFF"/>
      <stop offset="100%" stop-color="#FF8A63"/>
    </linearGradient>
  </defs>

  <g transform="translate(40 20) scale(0.32)">
    <path d="M132 132 Q256 58 380 132" stroke="#25D5CB" stroke-width="22" fill="none" stroke-linecap="round"/>
    <path d="M132 380 Q256 454 380 380" stroke="#25D5CB" stroke-width="22" fill="none" stroke-linecap="round"/>

    <rect x="166" y="166" width="180" height="180" rx="30" fill="#082A57"/>

    <g stroke="#082A57" stroke-width="16" stroke-linecap="round">
      <line x1="116" y1="211" x2="166" y2="211"/>
      <line x1="116" y1="256" x2="166" y2="256"/>
      <line x1="116" y1="301" x2="166" y2="301"/>

      <line x1="346" y1="211" x2="396" y2="211"/>
      <line x1="346" y1="256" x2="396" y2="256"/>
      <line x1="346" y1="301" x2="396" y2="301"/>

      <line x1="211" y1="116" x2="211" y2="166"/>
      <line x1="256" y1="116" x2="256" y2="166"/>
      <line x1="301" y1="116" x2="301" y2="166"/>

      <line x1="211" y1="346" x2="211" y2="396"/>
      <line x1="256" y1="346" x2="256" y2="396"/>
      <line x1="301" y1="346" x2="301" y2="396"/>
    </g>

    <circle cx="256" cy="256" r="64" fill="url(#coreGradient)"/>
  </g>

  <text x="230" y="130" font-family="Inter, Arial, sans-serif" font-size="64" font-weight="700" letter-spacing="-1" fill="#082A57">
    HookAI Civic
  </text>
</svg>
